# xmcd CD database file
#
# Track frame offsets:
#	150
#	14189
#	28306
#	48996
#	71585
#	87262
#	103962
#	118856
#	137956
#	154103
#	166850
#	187279
#	206601
#
# Disc length: 3060 seconds
#
# Revision: 0
# Processed by: cddbd v1.5.2PL0 Copyright (c) Steve Scherf et al.
# Submitted via: CDex 1.51
#
DISCID=c60bf20d
DTITLE=Michael Bublé - Call Me Irresponsible
DYEAR=2007
DGENRE=Jazz
TTITLE0=The Best Is Yet To Come
TTITLE1=It Had Better Be Tonight
TTITLE2=Me And Mrs Jones
TTITLE3=I'm Your Man
TTITLE4=Comin' Home Baby
TTITLE5=Lost
TTITLE6=Call Me Irresponsible
TTITLE7=Wonderful Tonight
TTITLE8=Everything
TTITLE9=I've Got The World On A String
TTITLE10=Always On My Mind
TTITLE11=That's Life
TTITLE12=Dream
EXTD=YEAR: 2007
EXTT0=
EXTT1=
EXTT2=
EXTT3=
EXTT4=
EXTT5=
EXTT6=
EXTT7=
EXTT8=
EXTT9=
EXTT10=
EXTT11=
EXTT12=
PLAYORDER=
